<svg width="320" height="160" viewBox="0 0 320 160" fill="none" xmlns="http://www.w3.org/2000/svg" role="img" aria-hidden="true">
  <defs>
    <linearGradient id="goal-day" x1="0" y1="0" x2="1" y2="0">
      <stop offset="0%" stop-color="#5DDC96"/>
      <stop offset="100%" stop-color="#34C778"/>
    </linearGradient>
    <linearGradient id="goal-week" x1="0" y1="0" x2="1" y2="0">
      <stop offset="0%" stop-color="#3460C2"/>
      <stop offset="100%" stop-color="#7EA5FF"/>
    </linearGradient>
    <linearGradient id="goal-month" x1="0" y1="0" x2="1" y2="0">
      <stop offset="0%" stop-color="#FBBF24"/>
      <stop offset="100%" stop-color="#FCD34D"/>
    </linearGradient>
    <style>
      .bg { fill: #0F1A33; }
      .row-label { fill: #C4D2F2; font-family: system-ui, -apple-system, sans-serif; font-size: 11px; font-weight: 600; }
      .row-value { fill: #ffffff; font-family: system-ui, sans-serif; font-size: 11px; font-weight: 700; }
      .row-bg { fill: #1F2D52; }
      .streak-card { fill: #1A2848; stroke: #2F4678; stroke-width: 1; }
      .streak-num { fill: #FBBF24; font-family: system-ui, sans-serif; font-size: 26px; font-weight: 800; }
      .streak-label { fill: #93ADEA; font-family: system-ui, sans-serif; font-size: 9px; text-transform: uppercase; letter-spacing: 0.08em; }
      .flame { fill: #FBBF24; }

      @media (prefers-color-scheme: light) {
        .bg { fill: #F4F8FF; }
        .row-label { fill: #334E80; }
        .row-value { fill: #1E293B; }
        .row-bg { fill: #DBE5F8; }
        .streak-card { fill: #ffffff; stroke: #C0D0F0; }
        .streak-num { fill: #B45309; }
        .streak-label { fill: #3B82F6; }
        .flame { fill: #B45309; }
      }
    </style>
  </defs>

  <rect width="320" height="160" rx="14" class="bg"/>

  <g transform="translate(16, 18)">
    <text x="0" y="10" class="row-label">Tag</text>
    <text x="200" y="10" text-anchor="end" class="row-value">42 / 50</text>
    <rect x="0" y="14" width="200" height="9" rx="4" class="row-bg"/>
    <rect x="0" y="14" width="168" height="9" rx="4" fill="url(#goal-day)"/>

    <text x="0" y="44" class="row-label">Woche</text>
    <text x="200" y="44" text-anchor="end" class="row-value">280 / 350</text>
    <rect x="0" y="48" width="200" height="9" rx="4" class="row-bg"/>
    <rect x="0" y="48" width="160" height="9" rx="4" fill="url(#goal-week)"/>

    <text x="0" y="78" class="row-label">Monat</text>
    <text x="200" y="78" text-anchor="end" class="row-value">920 / 1500</text>
    <rect x="0" y="82" width="200" height="9" rx="4" class="row-bg"/>
    <rect x="0" y="82" width="123" height="9" rx="4" fill="url(#goal-month)"/>
  </g>

  <g transform="translate(228, 18)">
    <rect x="0" y="0" width="76" height="92" rx="10" class="streak-card"/>
    <path class="flame" d="M38 14c-3 6-12 10-12 22 0 9 6 14 12 14s12-5 12-14c0-7-3-11-7-15-2 3-3 5-5 5-1-3 1-7 0-12z"/>
    <text x="38" y="72" text-anchor="middle" class="streak-num">17</text>
    <text x="38" y="86" text-anchor="middle" class="streak-label">Streak</text>
  </g>
</svg>
